<?xml version="1.0" encoding="utf-8"?>
<!-- Generator: Adobe Illustrator 26.5.0, SVG Export Plug-In . SVG Version: 6.00 Build 0)  -->
<svg version="1.1" id="Layer_1" xmlns="http://www.w3.org/2000/svg" xmlns:xlink="http://www.w3.org/1999/xlink" x="0px" y="0px"
	 viewBox="78 200 440 440" xml:space="preserve">
<style type="text/css">
	.st0{fill:url(#SVGID_1_);}
</style>
<linearGradient id="SVGID_1_" gradientUnits="userSpaceOnUse" x1="298.0366" y1="222.6072" x2="298.0366" y2="614.244" gradientTransform="matrix(1 0 0 -1 0 841.8898)">
	<stop  offset="0" style="stop-color:#0152BD"/>
	<stop  offset="1" style="stop-color:#049EFE"/>
</linearGradient>
<path class="st0" d="M404.3,543.7v38.6c0,0,0,1.1,0,1.6c0,19.6-47.4,35.6-106.3,36.1c-58.9-0.4-106.3-16.4-106.3-36.1
	c0-0.5,0-1.6,0-1.6v-38.6C199.9,588.5,396.1,588.4,404.3,543.7z M404.1,488.7c-8.1,44.6-204.5,44.4-212.4-0.1v38.6c0,0,0,1.1,0,1.6
	c0,19.6,47.4,35.6,106.3,36.1c58.9-0.4,106.3-16.4,106.3-36.1c0-0.5,0-1.6,0-1.6v-38.6C404.3,488.6,404.2,488.5,404.1,488.7z
	 M404.1,433.5c-8.1,44.6-204.5,44.4-212.4-0.1V472c0,0,0,1.1,0,1.6c0,19.6,47.4,35.6,106.3,36.1c58.9-0.4,106.3-16.4,106.3-36.1
	c0-0.5,0-1.6,0-1.6v-38.6C404.3,433.4,404.2,433.4,404.1,433.5z M191.6,417.3c-0.3-1.9-0.2-7.8,7.6-19.8l61-88.4v-55.8
	c-20-2.7-18.4-31.9,1.9-32.3c18,0,54,0,71.9,0c20.3,0.4,21.9,29.7,1.9,32.3V309l61,88.4c7.9,12.3,7.8,18.2,7.6,19.9
	c-0.1,0.4-0.2,1.1-0.3,1.3c-4.4,18.3-50.1,35.4-106,35.8l0,0h-0.1l0,0c-54.7-0.5-99.7-16.6-105.8-34.4c-0.2-0.5-0.3-0.9-0.4-1.4
	C191.7,417.8,191.7,417.8,191.6,417.3z M225.9,383.6c50.3,27.4,86.6-18.8,136.3-11.5l-40.6-58.7v-74.3H334c1.1,0,2-0.9,2-2
	s-0.9-2-2-2c-0.1,0-35.9,0-36,0h-35.9c-1.1,0-2,0.9-2,2s0.9,2,2,2h12.3v74.3L225.9,383.6z M288.8,382.1c0.8-5-53.5-5-52.7,0
	C235.3,387.1,289.6,387.1,288.8,382.1z M303.2,359.8c0.2,10.2,15.3,10.2,15.5,0C318.5,349.7,303.4,349.7,303.2,359.8z M286.4,356.6
	c11.8-0.3,11.8-17.6,0-17.9C274.6,339,274.6,356.3,286.4,356.6z M304.1,332.5c7.7-0.1,7.7-11.6,0-11.8
	C296.3,320.9,296.3,332.4,304.1,332.5z"/>
</svg>
